<svg xmlns="http://www.w3.org/2000/svg" xmlns:oryx="http://oryx-editor.org" id="_157B5D32-6F27-4366-B2D8-EE9FC9BF1927" width="488" height="346" xmlns:xlink="http://www.w3.org/1999/xlink" xmlns:svg="http://www.w3.org/2000/svg"><defs><marker id="_02CB6124-7175-496D-AFC9-5D934D2EE44Fstart" refX="1" refY="5" markerUnits="userSpaceOnUse" markerWidth="17" markerHeight="11" orient="auto" fill="#000000" stroke="#000000"> 	  		<path id="_02CB6124-7175-496D-AFC9-5D934D2EE44Fconditional" d="M 0 5 L 8 0 L 16 5 L 8 10 L 0 5" fill="white" stroke="#000000" stroke-width="1" display="none"/> 			<path id="_02CB6124-7175-496D-AFC9-5D934D2EE44Fdefault" d="M 5 0 L 11 10" fill="white" stroke="#000000" stroke-width="1" display="none"/> 	  	</marker><marker id="_02CB6124-7175-496D-AFC9-5D934D2EE44Fend" refX="15" refY="6" markerUnits="userSpaceOnUse" markerWidth="15" markerHeight="12" orient="auto" fill="#000000" stroke="#000000"> 	  		<path id="_02CB6124-7175-496D-AFC9-5D934D2EE44Fframe2" d="M 0 1 L 15 6 L 0 11z" fill="#000000" stroke="#000000" stroke-linejoin="round" stroke-width="2"/> 	  	</marker><marker id="_C5B2B0DE-115A-40F5-A977-5D7097E32C07start" refX="1" refY="5" markerUnits="userSpaceOnUse" markerWidth="17" markerHeight="11" orient="auto" fill="#000000" stroke="#000000"> 	  		<path id="_C5B2B0DE-115A-40F5-A977-5D7097E32C07conditional" d="M 0 5 L 8 0 L 16 5 L 8 10 L 0 5" fill="white" stroke="#000000" stroke-width="1" display="none"/> 			<path id="_C5B2B0DE-115A-40F5-A977-5D7097E32C07default" d="M 5 0 L 11 10" fill="white" stroke="#000000" stroke-width="1" display="none"/> 	  	</marker><marker id="_C5B2B0DE-115A-40F5-A977-5D7097E32C07end" refX="15" refY="6" markerUnits="userSpaceOnUse" markerWidth="15" markerHeight="12" orient="auto" fill="#000000" stroke="#000000"> 	  		<path id="_C5B2B0DE-115A-40F5-A977-5D7097E32C07frame2" d="M 0 1 L 15 6 L 0 11z" fill="#000000" stroke="#000000" stroke-linejoin="round" stroke-width="2"/> 	  	</marker><marker id="_296E4AA4-9831-4186-94DA-4CA0444AE72Bstart" refX="1" refY="5" markerUnits="userSpaceOnUse" markerWidth="17" markerHeight="11" orient="auto" fill="#000000" stroke="#000000"> 	  		<path id="_296E4AA4-9831-4186-94DA-4CA0444AE72Bconditional" d="M 0 5 L 8 0 L 16 5 L 8 10 L 0 5" fill="white" stroke="#000000" stroke-width="1" display="none"/> 			<path id="_296E4AA4-9831-4186-94DA-4CA0444AE72Bdefault" d="M 5 0 L 11 10" fill="white" stroke="#000000" stroke-width="1" display="none"/> 	  	</marker><marker id="_296E4AA4-9831-4186-94DA-4CA0444AE72Bend" refX="15" refY="6" markerUnits="userSpaceOnUse" markerWidth="15" markerHeight="12" orient="auto" fill="#000000" stroke="#000000"> 	  		<path id="_296E4AA4-9831-4186-94DA-4CA0444AE72Bframe2" d="M 0 1 L 15 6 L 0 11z" fill="#000000" stroke="#000000" stroke-linejoin="round" stroke-width="2"/> 	  	</marker><marker id="_B328E52B-946E-4093-AA94-4D84C12C1F0Bstart" refX="1" refY="5" markerUnits="userSpaceOnUse" markerWidth="17" markerHeight="11" orient="auto" fill="#000000" stroke="#000000"> 	  		<path id="_B328E52B-946E-4093-AA94-4D84C12C1F0Bconditional" d="M 0 5 L 8 0 L 16 5 L 8 10 L 0 5" fill="white" stroke="#000000" stroke-width="1" display="none"/> 			<path id="_B328E52B-946E-4093-AA94-4D84C12C1F0Bdefault" d="M 5 0 L 11 10" fill="white" stroke="#000000" stroke-width="1" display="none"/> 	  	</marker><marker id="_B328E52B-946E-4093-AA94-4D84C12C1F0Bend" refX="15" refY="6" markerUnits="userSpaceOnUse" markerWidth="15" markerHeight="12" orient="auto" fill="#000000" stroke="#000000"> 	  		<path id="_B328E52B-946E-4093-AA94-4D84C12C1F0Bframe2" d="M 0 1 L 15 6 L 0 11z" fill="#000000" stroke="#000000" stroke-linejoin="round" stroke-width="2"/> 	  	</marker><marker id="_DBA9C03F-02C7-4B23-ABEE-E0D174219D24start" refX="1" refY="5" markerUnits="userSpaceOnUse" markerWidth="17" markerHeight="11" orient="auto" fill="#000000" stroke="#000000"> 	  		<path id="_DBA9C03F-02C7-4B23-ABEE-E0D174219D24conditional" d="M 0 5 L 8 0 L 16 5 L 8 10 L 0 5" fill="white" stroke="#000000" stroke-width="1" display="none"/> 			<path id="_DBA9C03F-02C7-4B23-ABEE-E0D174219D24default" d="M 5 0 L 11 10" fill="white" stroke="#000000" stroke-width="1" display="none"/> 	  	</marker><marker id="_DBA9C03F-02C7-4B23-ABEE-E0D174219D24end" refX="15" refY="6" markerUnits="userSpaceOnUse" markerWidth="15" markerHeight="12" orient="auto" fill="#000000" stroke="#000000"> 	  		<path id="_DBA9C03F-02C7-4B23-ABEE-E0D174219D24frame2" d="M 0 1 L 15 6 L 0 11z" fill="#000000" stroke="#000000" stroke-linejoin="round" stroke-width="2"/> 	  	</marker></defs><g stroke="none" font-family="Verdana, sans-serif" font-size-adjust="none" font-style="normal" font-variant="normal" font-weight="normal" line-heigth="normal" font-size="12"><g class="stencils" transform="translate(15, 16)"><g class="me"/><g class="children"><g id="_464F8D60-49EC-4878-B804-0FBA9575C7D3" bpmn2nodeid="processStartEvent"><g class="stencils" transform="translate(120, 165)"><g class="me"><g pointer-events="fill" id="_464F8D60-49EC-4878-B804-0FBA9575C7D3">        <defs id="_464F8D60-49EC-4878-B804-0FBA9575C7D3__464F8D60-49EC-4878-B804-0FBA9575C7D3_5"> 		<radialGradient id="_464F8D60-49EC-4878-B804-0FBA9575C7D3background" cx="10%" cy="10%" r="100%" fx="10%" fy="10%"> 			<stop offset="0%" stop-color="#ffffff" stop-opacity="1" id="_464F8D60-49EC-4878-B804-0FBA9575C7D3__464F8D60-49EC-4878-B804-0FBA9575C7D3_6"/> 			<stop id="_464F8D60-49EC-4878-B804-0FBA9575C7D3fill_el" offset="100%" stop-color="#9acd32" stop-opacity="1"/> 		</radialGradient> 	</defs> 	     <circle id="_464F8D60-49EC-4878-B804-0FBA9575C7D3bg_frame" cx="15" cy="15" r="15" stroke="#000000" fill="url(#_464F8D60-49EC-4878-B804-0FBA9575C7D3background) white" stroke-width="1" style="stroke-dasharray: 5.5, 3"/>      <circle id="_464F8D60-49EC-4878-B804-0FBA9575C7D3frame" cx="15" cy="15" r="15" stroke="#000000" fill="none" stroke-width="1" display="inherit"/>  	<text font-size="11" id="_464F8D60-49EC-4878-B804-0FBA9575C7D3text_name" x="15" y="32" oryx:align="top center" stroke="black" stroke-width="0pt" letter-spacing="-0.01px" fill="#000000" text-anchor="middle" transform="rotate(0 15 32)" visibility="inherit" oryx:fontSize="11"/>   </g></g><g class="children" style="overflow:hidden"/><g class="edge"/></g><g class="controls"><g class="dockers"/><g class="magnets" transform="translate(120, 165)"><g pointer-events="all" display="none" transform="translate(7, 7)"><circle cx="8" cy="8" r="4" stroke="none" fill="red" fill-opacity="0.3"/></g></g></g></g><g id="_E3B55389-0C21-4F88-B8FC-B9B1046CBEC8" bpmn2nodeid="_3FCFCBD9-1419-4C65-98E9-6292FCFB2DAF"><g class="stencils" transform="translate(195, 75)"><g class="me"><g pointer-events="fill" oryx:minimumSize="50 40" id="_E3B55389-0C21-4F88-B8FC-B9B1046CBEC8">   	<defs id="_E3B55389-0C21-4F88-B8FC-B9B1046CBEC8__E3B55389-0C21-4F88-B8FC-B9B1046CBEC8_17"> 		<radialGradient id="_E3B55389-0C21-4F88-B8FC-B9B1046CBEC8background" cx="10%" cy="10%" r="100%" fx="10%" fy="10%"> 			<stop offset="0%" stop-color="#ffffff" stop-opacity="1" id="_E3B55389-0C21-4F88-B8FC-B9B1046CBEC8__E3B55389-0C21-4F88-B8FC-B9B1046CBEC8_18"/> 			<stop id="_E3B55389-0C21-4F88-B8FC-B9B1046CBEC8fill_el" offset="100%" stop-color="#fafad2" stop-opacity="1"/> 		</radialGradient> 		<radialGradient id="_E3B55389-0C21-4F88-B8FC-B9B1046CBEC8borderbackground" cx="10%" cy="10%" r="100%" fx="10%" fy="10%"> 			<stop offset="0%" stop-color="#ffffff" stop-opacity="1" id="_E3B55389-0C21-4F88-B8FC-B9B1046CBEC8__E3B55389-0C21-4F88-B8FC-B9B1046CBEC8_19"/> 			<stop id="_E3B55389-0C21-4F88-B8FC-B9B1046CBEC8fill_border" offset="100%" stop-color="#000000" stop-opacity="1" stroke="#000000"/> 		</radialGradient> 	</defs> 	 	<rect id="_E3B55389-0C21-4F88-B8FC-B9B1046CBEC8text_frame" oryx:anchors="bottom top right left" x="1" y="1" width="94" height="79" rx="10" ry="10" stroke="none" stroke-width="0" fill="none"/> 	<rect id="_E3B55389-0C21-4F88-B8FC-B9B1046CBEC8bg_frame" oryx:resize="vertical horizontal" x="0" y="0" width="100" height="80" rx="10" ry="10" stroke="#000000" stroke-width="1" fill="url(#_E3B55389-0C21-4F88-B8FC-B9B1046CBEC8background) #ffffcc"/> 		<text font-size="12" id="_E3B55389-0C21-4F88-B8FC-B9B1046CBEC8text_name" x="50" y="40" oryx:align="middle center" oryx:fittoelem="text_frame" stroke="black" text-anchor="middle" stroke-width="0pt" letter-spacing="-0.01px" fill="#000000" transform="rotate(0 50 40)" visibility="inherit" oryx:fontSize="12"><tspan x="50" y="40" dy="-1" id="ext-gen1227">t1: My User </tspan><tspan x="50" y="40" dy="11" id="ext-gen1226">Task</tspan></text>     <g id="_E3B55389-0C21-4F88-B8FC-B9B1046CBEC8manualTask" transform="scale(0.7,0.7) translate(8,8)" display="none">     	<path oryx:anchors="top left" id="_E3B55389-0C21-4F88-B8FC-B9B1046CBEC8frame" style="opacity:1;fill:none;fill-opacity:1;stroke-width:1" d="M0.5,3.751l4.083-3.25c0,0,11.166,0.083,12.083,0.083s-2.417,2.917-1.5,2.917     s11.667,0,12.584,0c1.166,1.708-0.168,3.167-0.834,3.667s0.875,1.917-1,4.417c-0.75,0.25,0.75,1.875-1.333,3.333     c-1.167,0.583,0.583,1.542-1.25,2.833c-1.167,0-20.833,0.083-20.833,0.083l-2-1.333V3.751z" stroke="#000000"/> 		<path id="_E3B55389-0C21-4F88-B8FC-B9B1046CBEC8frame2" oryx:anchors="top left" style="opacity:1;fill:none;stroke-width:2" d="M 13.5 7 L 27 7" stroke="#000000"/> 		<path id="_E3B55389-0C21-4F88-B8FC-B9B1046CBEC8frame3" oryx:anchors="top left" style="opacity:1;fill:none;stroke-width:2" d="M 13.5 11 L 26 11" stroke="#000000"/> 		<path id="_E3B55389-0C21-4F88-B8FC-B9B1046CBEC8frame4" oryx:anchors="top left" style="opacity:1;fill:none;stroke-width:1.5" d="M 14 14.5 L 25 14.5" stroke="#000000"/> 		<path id="_E3B55389-0C21-4F88-B8FC-B9B1046CBEC8frame5" oryx:anchors="top left" style="opacity:1;fill:none;stroke-width:1.5" d="M 8.2 3.1 L 15 3.1" stroke="#000000"/> 	</g> 	 	<g id="_E3B55389-0C21-4F88-B8FC-B9B1046CBEC8businessRuleTask" transform="scale(0.7,0.7) translate(8,8)" display="none"> 		<rect id="_E3B55389-0C21-4F88-B8FC-B9B1046CBEC8frame6" oryx:anchors="top left" x="0" y="0" width="22" height="4" style="opacity:1;fill:#B3B1B3;fill-opacity:1;" stroke="#000000"/> 		<rect id="_E3B55389-0C21-4F88-B8FC-B9B1046CBEC8frame7" oryx:anchors="top left" x="0" y="4" style="opacity:1;fill:none;" width="22" height="12" stroke="#000000"/> 		<path id="_E3B55389-0C21-4F88-B8FC-B9B1046CBEC8frame8" oryx:anchors="top left" style="opacity:1;fill:none;" d="M 0 10 L 22 10" stroke="#000000"/> 		<path id="_E3B55389-0C21-4F88-B8FC-B9B1046CBEC8frame9" oryx:anchors="top left" style="opacity:1; fill:none;" d="M 7 4 L 7 16" stroke="#000000"/> 	</g> 	 	<g id="_E3B55389-0C21-4F88-B8FC-B9B1046CBEC8scriptTask" transform="scale(0.7,0.7) translate(8,8)" display="none"> 		<path oryx:anchors="top left" id="_E3B55389-0C21-4F88-B8FC-B9B1046CBEC8frame10" style="opacity:1;fill:none;" stroke="#000000" d="M6.402,0.5h14.5c0,0-5.833,2.833-5.833,5.583s4.417,6,4.417,9.167    s-4.167,5.083-4.167,5.083H0.235c0,0,5-2.667,5-5s-4.583-6.75-4.583-9.25S6.402,0.5,6.402,0.5z"/> 		<path oryx:anchors="top left" id="_E3B55389-0C21-4F88-B8FC-B9B1046CBEC8frame11" style="opacity:1;fill:none;stroke-width:1.5" d="M 3.5 4.5 L 13.5 4.5" stroke="#000000"/> 		<path oryx:anchors="top left" id="_E3B55389-0C21-4F88-B8FC-B9B1046CBEC8frame12" style="opacity:1;fill:none;stroke-width:1.5" d="M 3.8 8.5 L 13.8 8.5" stroke="#000000"/> 		<path oryx:anchors="top left" id="_E3B55389-0C21-4F88-B8FC-B9B1046CBEC8frame13" style="opacity:1;fill:none;stroke-width:1.5" d="M 6.3 12.5 L 16.3 12.5" stroke="#000000"/> 		<path oryx:anchors="top left" id="_E3B55389-0C21-4F88-B8FC-B9B1046CBEC8frame14" style="opacity:1;fill:none;stroke-width:1.5" d="M 6.5 16.5 L 16.5 16.5" stroke="#000000"/> 	</g> 	 	<g id="_E3B55389-0C21-4F88-B8FC-B9B1046CBEC8userTask" transform="scale(0.7,0.7) translate(8,8)" display="inherit"> 		<path id="_E3B55389-0C21-4F88-B8FC-B9B1046CBEC8frame15" oryx:anchors="top left" style="opacity:1;fill:#F4F6F7" stroke="#000000" d="M0.585,24.167h24.083v-7.833c0,0-2.333-3.917-7.083-5.167h-9.25    c-4.417,1.333-7.833,5.75-7.833,5.75L0.585,24.167z"/> 		<path id="_E3B55389-0C21-4F88-B8FC-B9B1046CBEC8frame16" oryx:anchors="top left" style="opacity:1;fill:none" d="M 6 20 L 6 24" stroke="#000000"/> 		<path id="_E3B55389-0C21-4F88-B8FC-B9B1046CBEC8frame17" oryx:anchors="top left" style="opacity:1;fill:none" d="M 20 20 L 20 24" stroke="#000000"/> 		<circle id="_E3B55389-0C21-4F88-B8FC-B9B1046CBEC8frame18" oryx:anchors="top left" fill="black" cx="13.002" cy="5.916" r="5.417" stroke="#000000"/> 		<path id="_E3B55389-0C21-4F88-B8FC-B9B1046CBEC8frame19" oryx:anchors="top left" style="opacity:1;fill:#F0EFF0;" stroke="#000000" d="M8.043,7.083c0,0,2.814-2.426,5.376-1.807s4.624-0.693,4.624-0.693    c0.25,1.688,0.042,3.75-1.458,5.584c0,0,1.083,0.75,1.083,1.5s0.125,1.875-1,3s-5.5,1.25-6.75,0S8.668,12.834,8.668,12    s0.583-1.25,1.25-1.917C8.835,9.5,7.419,7.708,8.043,7.083z"/> 	</g> 	 	<g id="_E3B55389-0C21-4F88-B8FC-B9B1046CBEC8serviceTask" transform="scale(0.7,0.7) translate(8,8)" display="none"> 		<polygon oryx:anchors="top left" id="_E3B55389-0C21-4F88-B8FC-B9B1046CBEC8frame20" style="opacity:1;fill:#ffffff" stroke="#000000" points="15.392,5.064 17.954,2.502 20.347,4.895 17.786,7.455     18.729,9.732 22.353,9.732 22.353,13.115 18.731,13.115 17.788,15.392 20.351,17.955 17.958,20.347 15.397,17.786 13.12,18.729     13.12,22.353 9.737,22.353 9.737,18.731 7.46,17.788 4.897,20.35 2.506,17.958 5.066,15.397 4.124,13.12 0.5,13.12 0.5,9.737     4.121,9.737 5.065,7.461 2.503,4.898 4.895,2.506 7.455,5.066 9.732,4.125 9.732,0.5 13.116,0.5 13.116,4.121 "/> 		<circle oryx:anchors="top left" id="_E3B55389-0C21-4F88-B8FC-B9B1046CBEC8frame21" style="opacity:1;fill:none" stroke="#000000" cx="11.427" cy="11.426" r="3.714"/> 		<polygon oryx:anchors="top left" id="_E3B55389-0C21-4F88-B8FC-B9B1046CBEC8frame22" style="opacity:1;fill:#ffffff" stroke="#000000" points="21.392,11.064 23.954,8.502 26.347,10.895 23.786,13.455     24.729,15.732 28.353,15.732 28.353,19.115 24.731,19.115 23.788,21.392 26.351,23.955 23.958,26.347 21.397,23.786 19.12,24.729     19.12,28.353 15.737,28.353 15.737,24.731 13.46,23.788 10.897,26.35 8.506,23.958 11.066,21.397 10.124,19.12 6.5,19.12     6.5,15.737 10.121,15.737 11.065,13.461 8.503,10.898 10.895,8.506 13.455,11.066 15.732,10.125 15.732,6.5 19.116,6.5     19.116,10.121 "/> 		<circle oryx:anchors="top left" id="_E3B55389-0C21-4F88-B8FC-B9B1046CBEC8frame23" style="opacity:1;fill:none;" stroke="#000000" cx="17.427" cy="17.426" r="3.714"/> 	</g> 	 	<g id="_E3B55389-0C21-4F88-B8FC-B9B1046CBEC8sendTask" display="none"> 		<path id="_E3B55389-0C21-4F88-B8FC-B9B1046CBEC8stframe24" oryx:anchors="left top" stroke="#FFFFFF" fill="black" stroke-width="1" d="M8,11 L8,21 L24,21 L24,11 L16,17z"/> 		<path id="_E3B55389-0C21-4F88-B8FC-B9B1046CBEC8stframe25" oryx:anchors="left top" stroke="#FFFFFF" fill="black" stroke-width="1" d="M7,10 L16,17 L25 10z"/> 	</g> 	 	<g id="_E3B55389-0C21-4F88-B8FC-B9B1046CBEC8receiveTask" display="none"> 		<path id="_E3B55389-0C21-4F88-B8FC-B9B1046CBEC8frame26" oryx:anchors="left top" stroke="#000000" fill="none" stroke-width="1" d="M8,11 L8,21 L24,21 L24,11z M8,11 L16,17 L24,11"/> 	</g> 	 	<g id="_E3B55389-0C21-4F88-B8FC-B9B1046CBEC8none" display="none"/>  	<g id="_E3B55389-0C21-4F88-B8FC-B9B1046CBEC8sequential" display="none">         <path oryx:anchors="bottom" fill="none" stroke="#000000" stroke-width="2" d="M46,76h10M46,72h10 M46,68h10" id="_E3B55389-0C21-4F88-B8FC-B9B1046CBEC8__E3B55389-0C21-4F88-B8FC-B9B1046CBEC8_20"/>     </g>   </g></g><g class="children" style="overflow:hidden"/><g class="edge"/></g><g class="controls"><g class="dockers"/><g class="magnets" transform="translate(195, 75)"><g pointer-events="all" display="none" transform="translate(-7, 12)"><circle cx="8" cy="8" r="4" stroke="none" fill="red" fill-opacity="0.3"/></g><g pointer-events="all" display="none" transform="translate(-7, 32)"><circle cx="8" cy="8" r="4" stroke="none" fill="red" fill-opacity="0.3"/></g><g pointer-events="all" display="none" transform="translate(-7, 52)"><circle cx="8" cy="8" r="4" stroke="none" fill="red" fill-opacity="0.3"/></g><g pointer-events="all" display="none" transform="translate(17, 71)"><circle cx="8" cy="8" r="4" stroke="none" fill="red" fill-opacity="0.3"/></g><g pointer-events="all" display="none" transform="translate(42, 71)"><circle cx="8" cy="8" r="4" stroke="none" fill="red" fill-opacity="0.3"/></g><g pointer-events="all" display="none" transform="translate(67, 71)"><circle cx="8" cy="8" r="4" stroke="none" fill="red" fill-opacity="0.3"/></g><g pointer-events="all" display="none" transform="translate(91, 12)"><circle cx="8" cy="8" r="4" stroke="none" fill="red" fill-opacity="0.3"/></g><g pointer-events="all" display="none" transform="translate(91, 32)"><circle cx="8" cy="8" r="4" stroke="none" fill="red" fill-opacity="0.3"/></g><g pointer-events="all" display="none" transform="translate(91, 52)"><circle cx="8" cy="8" r="4" stroke="none" fill="red" fill-opacity="0.3"/></g><g pointer-events="all" display="none" transform="translate(17, -7)"><circle cx="8" cy="8" r="4" stroke="none" fill="red" fill-opacity="0.3"/></g><g pointer-events="all" display="none" transform="translate(42, -7)"><circle cx="8" cy="8" r="4" stroke="none" fill="red" fill-opacity="0.3"/></g><g pointer-events="all" display="none" transform="translate(67, -7)"><circle cx="8" cy="8" r="4" stroke="none" fill="red" fill-opacity="0.3"/></g><g pointer-events="all" display="none" transform="translate(42, 32)"><circle cx="8" cy="8" r="4" stroke="none" fill="red" fill-opacity="0.3"/></g></g></g></g><g id="_C21DC775-06E1-488D-B922-6730BDA83EEC" bpmn2nodeid="_31E9E9A4-FE1A-400E-92CA-59939D061A47"><g class="stencils" transform="translate(195, 225)"><g class="me"><g pointer-events="fill" oryx:minimumSize="50 40" id="_C21DC775-06E1-488D-B922-6730BDA83EEC">   	<defs id="_C21DC775-06E1-488D-B922-6730BDA83EEC__C21DC775-06E1-488D-B922-6730BDA83EEC_17"> 		<radialGradient id="_C21DC775-06E1-488D-B922-6730BDA83EECbackground" cx="10%" cy="10%" r="100%" fx="10%" fy="10%"> 			<stop offset="0%" stop-color="#ffffff" stop-opacity="1" id="_C21DC775-06E1-488D-B922-6730BDA83EEC__C21DC775-06E1-488D-B922-6730BDA83EEC_18"/> 			<stop id="_C21DC775-06E1-488D-B922-6730BDA83EECfill_el" offset="100%" stop-color="#fafad2" stop-opacity="1"/> 		</radialGradient> 		<radialGradient id="_C21DC775-06E1-488D-B922-6730BDA83EECborderbackground" cx="10%" cy="10%" r="100%" fx="10%" fy="10%"> 			<stop offset="0%" stop-color="#ffffff" stop-opacity="1" id="_C21DC775-06E1-488D-B922-6730BDA83EEC__C21DC775-06E1-488D-B922-6730BDA83EEC_19"/> 			<stop id="_C21DC775-06E1-488D-B922-6730BDA83EECfill_border" offset="100%" stop-color="#000000" stop-opacity="1" stroke="#000000"/> 		</radialGradient> 	</defs> 	 	<rect id="_C21DC775-06E1-488D-B922-6730BDA83EECtext_frame" oryx:anchors="bottom top right left" x="1" y="1" width="94" height="79" rx="10" ry="10" stroke="none" stroke-width="0" fill="none"/> 	<rect id="_C21DC775-06E1-488D-B922-6730BDA83EECbg_frame" oryx:resize="vertical horizontal" x="0" y="0" width="100" height="80" rx="10" ry="10" stroke="#000000" stroke-width="1" fill="url(#_C21DC775-06E1-488D-B922-6730BDA83EECbackground) #ffffcc"/> 		<text font-size="12" id="_C21DC775-06E1-488D-B922-6730BDA83EECtext_name" x="50" y="40" oryx:align="middle center" oryx:fittoelem="text_frame" stroke="black" text-anchor="middle" stroke-width="0pt" letter-spacing="-0.01px" fill="#000000" transform="rotate(0 50 40)" visibility="inherit" oryx:fontSize="12"><tspan x="50" y="40" dy="-1" id="ext-gen1339">t2: My Group </tspan><tspan x="50" y="40" dy="11" id="ext-gen1826">Task</tspan></text>     <g id="_C21DC775-06E1-488D-B922-6730BDA83EECmanualTask" transform="scale(0.7,0.7) translate(8,8)" display="none">     	<path oryx:anchors="top left" id="_C21DC775-06E1-488D-B922-6730BDA83EECframe" style="opacity:1;fill:none;fill-opacity:1;stroke-width:1" d="M0.5,3.751l4.083-3.25c0,0,11.166,0.083,12.083,0.083s-2.417,2.917-1.5,2.917     s11.667,0,12.584,0c1.166,1.708-0.168,3.167-0.834,3.667s0.875,1.917-1,4.417c-0.75,0.25,0.75,1.875-1.333,3.333     c-1.167,0.583,0.583,1.542-1.25,2.833c-1.167,0-20.833,0.083-20.833,0.083l-2-1.333V3.751z" stroke="#000000"/> 		<path id="_C21DC775-06E1-488D-B922-6730BDA83EECframe2" oryx:anchors="top left" style="opacity:1;fill:none;stroke-width:2" d="M 13.5 7 L 27 7" stroke="#000000"/> 		<path id="_C21DC775-06E1-488D-B922-6730BDA83EECframe3" oryx:anchors="top left" style="opacity:1;fill:none;stroke-width:2" d="M 13.5 11 L 26 11" stroke="#000000"/> 		<path id="_C21DC775-06E1-488D-B922-6730BDA83EECframe4" oryx:anchors="top left" style="opacity:1;fill:none;stroke-width:1.5" d="M 14 14.5 L 25 14.5" stroke="#000000"/> 		<path id="_C21DC775-06E1-488D-B922-6730BDA83EECframe5" oryx:anchors="top left" style="opacity:1;fill:none;stroke-width:1.5" d="M 8.2 3.1 L 15 3.1" stroke="#000000"/> 	</g> 	 	<g id="_C21DC775-06E1-488D-B922-6730BDA83EECbusinessRuleTask" transform="scale(0.7,0.7) translate(8,8)" display="none"> 		<rect id="_C21DC775-06E1-488D-B922-6730BDA83EECframe6" oryx:anchors="top left" x="0" y="0" width="22" height="4" style="opacity:1;fill:#B3B1B3;fill-opacity:1;" stroke="#000000"/> 		<rect id="_C21DC775-06E1-488D-B922-6730BDA83EECframe7" oryx:anchors="top left" x="0" y="4" style="opacity:1;fill:none;" width="22" height="12" stroke="#000000"/> 		<path id="_C21DC775-06E1-488D-B922-6730BDA83EECframe8" oryx:anchors="top left" style="opacity:1;fill:none;" d="M 0 10 L 22 10" stroke="#000000"/> 		<path id="_C21DC775-06E1-488D-B922-6730BDA83EECframe9" oryx:anchors="top left" style="opacity:1; fill:none;" d="M 7 4 L 7 16" stroke="#000000"/> 	</g> 	 	<g id="_C21DC775-06E1-488D-B922-6730BDA83EECscriptTask" transform="scale(0.7,0.7) translate(8,8)" display="none"> 		<path oryx:anchors="top left" id="_C21DC775-06E1-488D-B922-6730BDA83EECframe10" style="opacity:1;fill:none;" stroke="#000000" d="M6.402,0.5h14.5c0,0-5.833,2.833-5.833,5.583s4.417,6,4.417,9.167    s-4.167,5.083-4.167,5.083H0.235c0,0,5-2.667,5-5s-4.583-6.75-4.583-9.25S6.402,0.5,6.402,0.5z"/> 		<path oryx:anchors="top left" id="_C21DC775-06E1-488D-B922-6730BDA83EECframe11" style="opacity:1;fill:none;stroke-width:1.5" d="M 3.5 4.5 L 13.5 4.5" stroke="#000000"/> 		<path oryx:anchors="top left" id="_C21DC775-06E1-488D-B922-6730BDA83EECframe12" style="opacity:1;fill:none;stroke-width:1.5" d="M 3.8 8.5 L 13.8 8.5" stroke="#000000"/> 		<path oryx:anchors="top left" id="_C21DC775-06E1-488D-B922-6730BDA83EECframe13" style="opacity:1;fill:none;stroke-width:1.5" d="M 6.3 12.5 L 16.3 12.5" stroke="#000000"/> 		<path oryx:anchors="top left" id="_C21DC775-06E1-488D-B922-6730BDA83EECframe14" style="opacity:1;fill:none;stroke-width:1.5" d="M 6.5 16.5 L 16.5 16.5" stroke="#000000"/> 	</g> 	 	<g id="_C21DC775-06E1-488D-B922-6730BDA83EECuserTask" transform="scale(0.7,0.7) translate(8,8)" display="inherit"> 		<path id="_C21DC775-06E1-488D-B922-6730BDA83EECframe15" oryx:anchors="top left" style="opacity:1;fill:#F4F6F7" stroke="#000000" d="M0.585,24.167h24.083v-7.833c0,0-2.333-3.917-7.083-5.167h-9.25    c-4.417,1.333-7.833,5.75-7.833,5.75L0.585,24.167z"/> 		<path id="_C21DC775-06E1-488D-B922-6730BDA83EECframe16" oryx:anchors="top left" style="opacity:1;fill:none" d="M 6 20 L 6 24" stroke="#000000"/> 		<path id="_C21DC775-06E1-488D-B922-6730BDA83EECframe17" oryx:anchors="top left" style="opacity:1;fill:none" d="M 20 20 L 20 24" stroke="#000000"/> 		<circle id="_C21DC775-06E1-488D-B922-6730BDA83EECframe18" oryx:anchors="top left" fill="black" cx="13.002" cy="5.916" r="5.417" stroke="#000000"/> 		<path id="_C21DC775-06E1-488D-B922-6730BDA83EECframe19" oryx:anchors="top left" style="opacity:1;fill:#F0EFF0;" stroke="#000000" d="M8.043,7.083c0,0,2.814-2.426,5.376-1.807s4.624-0.693,4.624-0.693    c0.25,1.688,0.042,3.75-1.458,5.584c0,0,1.083,0.75,1.083,1.5s0.125,1.875-1,3s-5.5,1.25-6.75,0S8.668,12.834,8.668,12    s0.583-1.25,1.25-1.917C8.835,9.5,7.419,7.708,8.043,7.083z"/> 	</g> 	 	<g id="_C21DC775-06E1-488D-B922-6730BDA83EECserviceTask" transform="scale(0.7,0.7) translate(8,8)" display="none"> 		<polygon oryx:anchors="top left" id="_C21DC775-06E1-488D-B922-6730BDA83EECframe20" style="opacity:1;fill:#ffffff" stroke="#000000" points="15.392,5.064 17.954,2.502 20.347,4.895 17.786,7.455     18.729,9.732 22.353,9.732 22.353,13.115 18.731,13.115 17.788,15.392 20.351,17.955 17.958,20.347 15.397,17.786 13.12,18.729     13.12,22.353 9.737,22.353 9.737,18.731 7.46,17.788 4.897,20.35 2.506,17.958 5.066,15.397 4.124,13.12 0.5,13.12 0.5,9.737     4.121,9.737 5.065,7.461 2.503,4.898 4.895,2.506 7.455,5.066 9.732,4.125 9.732,0.5 13.116,0.5 13.116,4.121 "/> 		<circle oryx:anchors="top left" id="_C21DC775-06E1-488D-B922-6730BDA83EECframe21" style="opacity:1;fill:none" stroke="#000000" cx="11.427" cy="11.426" r="3.714"/> 		<polygon oryx:anchors="top left" id="_C21DC775-06E1-488D-B922-6730BDA83EECframe22" style="opacity:1;fill:#ffffff" stroke="#000000" points="21.392,11.064 23.954,8.502 26.347,10.895 23.786,13.455     24.729,15.732 28.353,15.732 28.353,19.115 24.731,19.115 23.788,21.392 26.351,23.955 23.958,26.347 21.397,23.786 19.12,24.729     19.12,28.353 15.737,28.353 15.737,24.731 13.46,23.788 10.897,26.35 8.506,23.958 11.066,21.397 10.124,19.12 6.5,19.12     6.5,15.737 10.121,15.737 11.065,13.461 8.503,10.898 10.895,8.506 13.455,11.066 15.732,10.125 15.732,6.5 19.116,6.5     19.116,10.121 "/> 		<circle oryx:anchors="top left" id="_C21DC775-06E1-488D-B922-6730BDA83EECframe23" style="opacity:1;fill:none;" stroke="#000000" cx="17.427" cy="17.426" r="3.714"/> 	</g> 	 	<g id="_C21DC775-06E1-488D-B922-6730BDA83EECsendTask" display="none"> 		<path id="_C21DC775-06E1-488D-B922-6730BDA83EECstframe24" oryx:anchors="left top" stroke="#FFFFFF" fill="black" stroke-width="1" d="M8,11 L8,21 L24,21 L24,11 L16,17z"/> 		<path id="_C21DC775-06E1-488D-B922-6730BDA83EECstframe25" oryx:anchors="left top" stroke="#FFFFFF" fill="black" stroke-width="1" d="M7,10 L16,17 L25 10z"/> 	</g> 	 	<g id="_C21DC775-06E1-488D-B922-6730BDA83EECreceiveTask" display="none"> 		<path id="_C21DC775-06E1-488D-B922-6730BDA83EECframe26" oryx:anchors="left top" stroke="#000000" fill="none" stroke-width="1" d="M8,11 L8,21 L24,21 L24,11z M8,11 L16,17 L24,11"/> 	</g> 	 	<g id="_C21DC775-06E1-488D-B922-6730BDA83EECnone" display="none"/>  	<g id="_C21DC775-06E1-488D-B922-6730BDA83EECsequential" display="none">         <path oryx:anchors="bottom" fill="none" stroke="#000000" stroke-width="2" d="M46,76h10M46,72h10 M46,68h10" id="_C21DC775-06E1-488D-B922-6730BDA83EEC__C21DC775-06E1-488D-B922-6730BDA83EEC_20"/>     </g>   </g></g><g class="children" style="overflow:hidden"/><g class="edge"/></g><g class="controls"><g class="dockers"/><g class="magnets" transform="translate(195, 225)"><g pointer-events="all" display="none" transform="translate(-7, 12)"><circle cx="8" cy="8" r="4" stroke="none" fill="red" fill-opacity="0.3"/></g><g pointer-events="all" display="none" transform="translate(-7, 32)"><circle cx="8" cy="8" r="4" stroke="none" fill="red" fill-opacity="0.3"/></g><g pointer-events="all" display="none" transform="translate(-7, 52)"><circle cx="8" cy="8" r="4" stroke="none" fill="red" fill-opacity="0.3"/></g><g pointer-events="all" display="none" transform="translate(17, 71)"><circle cx="8" cy="8" r="4" stroke="none" fill="red" fill-opacity="0.3"/></g><g pointer-events="all" display="none" transform="translate(42, 71)"><circle cx="8" cy="8" r="4" stroke="none" fill="red" fill-opacity="0.3"/></g><g pointer-events="all" display="none" transform="translate(67, 71)"><circle cx="8" cy="8" r="4" stroke="none" fill="red" fill-opacity="0.3"/></g><g pointer-events="all" display="none" transform="translate(91, 12)"><circle cx="8" cy="8" r="4" stroke="none" fill="red" fill-opacity="0.3"/></g><g pointer-events="all" display="none" transform="translate(91, 32)"><circle cx="8" cy="8" r="4" stroke="none" fill="red" fill-opacity="0.3"/></g><g pointer-events="all" display="none" transform="translate(91, 52)"><circle cx="8" cy="8" r="4" stroke="none" fill="red" fill-opacity="0.3"/></g><g pointer-events="all" display="none" transform="translate(17, -7)"><circle cx="8" cy="8" r="4" stroke="none" fill="red" fill-opacity="0.3"/></g><g pointer-events="all" display="none" transform="translate(42, -7)"><circle cx="8" cy="8" r="4" stroke="none" fill="red" fill-opacity="0.3"/></g><g pointer-events="all" display="none" transform="translate(67, -7)"><circle cx="8" cy="8" r="4" stroke="none" fill="red" fill-opacity="0.3"/></g><g pointer-events="all" display="none" transform="translate(42, 32)"><circle cx="8" cy="8" r="4" stroke="none" fill="red" fill-opacity="0.3"/></g></g></g></g><g id="_9279F3C7-1069-41B3-9449-1745708EA405" bpmn2nodeid="_76AE1DE6-B3A9-4B05-A850-DC5E18DBFBED"><g class="stencils" transform="translate(330, 165)"><g class="me"><g id="_9279F3C7-1069-41B3-9449-1745708EA405">        <defs id="_9279F3C7-1069-41B3-9449-1745708EA405__9279F3C7-1069-41B3-9449-1745708EA405_4"> 		<radialGradient id="_9279F3C7-1069-41B3-9449-1745708EA405background" cx="10%" cy="10%" r="100%" fx="10%" fy="10%"> 			<stop offset="0%" stop-color="#ffffff" stop-opacity="1" id="_9279F3C7-1069-41B3-9449-1745708EA405__9279F3C7-1069-41B3-9449-1745708EA405_5"/> 			<stop id="_9279F3C7-1069-41B3-9449-1745708EA405fill_el" offset="100%" stop-color="#f0e68c" stop-opacity="1"/> 		</radialGradient> 		<radialGradient id="_9279F3C7-1069-41B3-9449-1745708EA405borderbackground" cx="10%" cy="10%" r="100%" fx="10%" fy="10%"> 			<stop offset="0%" stop-color="#ffffff" stop-opacity="1" id="_9279F3C7-1069-41B3-9449-1745708EA405__9279F3C7-1069-41B3-9449-1745708EA405_6"/> 			<stop id="_9279F3C7-1069-41B3-9449-1745708EA405fill_border" offset="100%" stop-color="#a67f00" stop-opacity="1" stroke="#a67f00"/> 		</radialGradient> 	</defs> 	     <path d=" M0 20.5  L20.5 0  L40 20.5  L20.5 40  z" id="_9279F3C7-1069-41B3-9449-1745708EA405bg_frame" fill="url(#_9279F3C7-1069-41B3-9449-1745708EA405background) white" style="stroke-width:1" stroke="#a67f00"/>     <g id="_9279F3C7-1069-41B3-9449-1745708EA405frame" stroke="#a67f00">       <path id="_9279F3C7-1069-41B3-9449-1745708EA405frame2" d=" M13.25 12.05  L17.25 12.05  L27.65 28.95  L23.75 28.95  z" style="stroke-width:1" stroke="#a67f00" fill="url(#_9279F3C7-1069-41B3-9449-1745708EA405borderbackground)"/>       <path id="_9279F3C7-1069-41B3-9449-1745708EA405frame3" d=" M13.25 28.95  L23.75 12.05  L27.65 12.05  L17.25 28.95  z" style="stroke-width:1" stroke="#a67f00" fill="url(#_9279F3C7-1069-41B3-9449-1745708EA405borderbackground)"/>     </g> 	 	<text id="_9279F3C7-1069-41B3-9449-1745708EA405text_name" x="30.5" y="30.5" oryx:align="left top" stroke-width="0pt" letter-spacing="-0.01px" fill="#000000" text-anchor="start" transform="rotate(0 30.5 30.5)" visibility="inherit" oryx:fontSize="12"/> 	   </g></g><g class="children" style="overflow:hidden"/><g class="edge"/></g><g class="controls"><g class="dockers"/><g class="magnets" transform="translate(330, 165)"><g pointer-events="all" display="none" transform="translate(12.5, 12.5)"><circle cx="8" cy="8" r="4" stroke="none" fill="red" fill-opacity="0.3"/></g></g></g></g><g id="_F1900F4F-B692-483F-9E98-BF159567BD68" bpmn2nodeid="_22885A87-9721-4238-B219-1BC4FC7A3FF3"><g class="stencils" transform="translate(420, 171)"><g class="me"><g pointer-events="fill" id="_F1900F4F-B692-483F-9E98-BF159567BD68">      <defs id="_F1900F4F-B692-483F-9E98-BF159567BD68__F1900F4F-B692-483F-9E98-BF159567BD68_5"> 		<radialGradient id="_F1900F4F-B692-483F-9E98-BF159567BD68background" cx="10%" cy="10%" r="100%" fx="10%" fy="10%"> 			<stop offset="0%" stop-color="#ffffff" stop-opacity="1" id="_F1900F4F-B692-483F-9E98-BF159567BD68__F1900F4F-B692-483F-9E98-BF159567BD68_6"/> 			<stop id="_F1900F4F-B692-483F-9E98-BF159567BD68fill_el" offset="100%" stop-color="#ff6347" stop-opacity="1"/> 		</radialGradient> 	</defs> 	     <circle id="_F1900F4F-B692-483F-9E98-BF159567BD68bg_frame" cx="14" cy="14" r="14" stroke="#000000" fill="url(#_F1900F4F-B692-483F-9E98-BF159567BD68background) white" stroke-width="3"/> 	<text font-size="11" id="_F1900F4F-B692-483F-9E98-BF159567BD68text_name" x="14" y="30" oryx:align="top center" stroke="black" stroke-width="0pt" letter-spacing="-0.01px" fill="#000000" text-anchor="middle" transform="rotate(0 14 30)" visibility="inherit" oryx:fontSize="11"/>   </g></g><g class="children" style="overflow:hidden"/><g class="edge"/></g><g class="controls"><g class="dockers"/><g class="magnets" transform="translate(420, 171)"><g pointer-events="all" display="none" transform="translate(6, 6)"><circle cx="8" cy="8" r="4" stroke="none" fill="red" fill-opacity="0.3"/></g></g></g></g></g><g class="edge"><g id="_02CB6124-7175-496D-AFC9-5D934D2EE44F" bpmn2nodeid="_F9656624-36D6-44FB-90E2-C42AEA4EC08F"><g class="stencils"><g class="me"><g pointer-events="painted" bpmn2nodeid="_F9656624-36D6-44FB-90E2-C42AEA4EC08F"><path id="_02CB6124-7175-496D-AFC9-5D934D2EE44F_1" d="M148.75155152821432 171.87408318787337L194.29532347178568 144.96185431212663 " stroke="#000000" fill="none" stroke-width="2" stroke-linecap="round" stroke-linejoin="round" marker-start="url(#_02CB6124-7175-496D-AFC9-5D934D2EE44Fstart)" marker-end="url(#_02CB6124-7175-496D-AFC9-5D934D2EE44Fend)"/></g><text id="_02CB6124-7175-496D-AFC9-5D934D2EE44Ftext_name" font-size="12" x="162.75155152821432" y="157.87408318787337" oryx:edgePosition="startTop" stroke-width="0pt" letter-spacing="-0.01px" fill="#000000" text-anchor="start" transform="rotate(329.420773127511 148.75155152821432 171.87408318787337)" visibility="inherit" oryx:fontSize="12"/></g><g class="children" style="overflow:hidden"/><g class="edge"/></g><g class="controls"><g class="dockers"/><g class="magnets"/></g></g><g id="_C5B2B0DE-115A-40F5-A977-5D7097E32C07" bpmn2nodeid="_5CF650CE-4F79-4321-8FA7-F24AF60B7004"><g class="stencils"><g class="me"><g pointer-events="painted" bpmn2nodeid="_5CF650CE-4F79-4321-8FA7-F24AF60B7004"><path id="_C5B2B0DE-115A-40F5-A977-5D7097E32C07_1" d="M146.96316000139217 189.24426000107576L194.36496499860783 225.87292749892424 " stroke="#000000" fill="none" stroke-width="2" stroke-linecap="round" stroke-linejoin="round" marker-start="url(#_C5B2B0DE-115A-40F5-A977-5D7097E32C07start)" marker-end="url(#_C5B2B0DE-115A-40F5-A977-5D7097E32C07end)"/></g><text id="_C5B2B0DE-115A-40F5-A977-5D7097E32C07text_name" font-size="12" x="160.96316000139217" y="175.24426000107576" oryx:edgePosition="startTop" stroke-width="0pt" letter-spacing="-0.01px" fill="#000000" text-anchor="start" transform="rotate(37.694240466689166 146.96316000139217 189.24426000107576)" visibility="inherit" oryx:fontSize="12"/></g><g class="children" style="overflow:hidden"/><g class="edge"/></g><g class="controls"><g class="dockers"/><g class="magnets"/></g></g><g id="_296E4AA4-9831-4186-94DA-4CA0444AE72B" bpmn2nodeid="_3EB49DC6-E70D-4BFC-9F36-1AEC6C908793"><g class="stencils"><g class="me"><g pointer-events="painted" bpmn2nodeid="_3EB49DC6-E70D-4BFC-9F36-1AEC6C908793"><path id="_296E4AA4-9831-4186-94DA-4CA0444AE72B_1" d="M295.2845685680681 148.60248420899336L338.1294939319319 177.23345329100664 " stroke="#000000" fill="none" stroke-width="2" stroke-linecap="round" stroke-linejoin="round" marker-start="url(#_296E4AA4-9831-4186-94DA-4CA0444AE72Bstart)" marker-end="url(#_296E4AA4-9831-4186-94DA-4CA0444AE72Bend)"/></g><text id="_296E4AA4-9831-4186-94DA-4CA0444AE72Btext_name" font-size="12" x="309.2845685680681" y="134.60248420899336" oryx:edgePosition="startTop" stroke-width="0pt" letter-spacing="-0.01px" fill="#000000" text-anchor="start" transform="rotate(33.75268583931461 295.2845685680681 148.60248420899336)" visibility="inherit" oryx:fontSize="12"/></g><g class="children" style="overflow:hidden"/><g class="edge"/></g><g class="controls"><g class="dockers"/><g class="magnets"/></g></g><g id="_B328E52B-946E-4093-AA94-4D84C12C1F0B" bpmn2nodeid="_BCACEB34-D769-42F0-AD9E-E4ECA9387B7B"><g class="stencils"><g class="me"><g pointer-events="painted" bpmn2nodeid="_BCACEB34-D769-42F0-AD9E-E4ECA9387B7B"><path id="_B328E52B-946E-4093-AA94-4D84C12C1F0B_1" d="M295.0141817200325 226.89395678473716L338.5405057799675 193.73104321526284 " stroke="#000000" fill="none" stroke-width="2" stroke-linecap="round" stroke-linejoin="round" marker-start="url(#_B328E52B-946E-4093-AA94-4D84C12C1F0Bstart)" marker-end="url(#_B328E52B-946E-4093-AA94-4D84C12C1F0Bend)"/></g><text id="_B328E52B-946E-4093-AA94-4D84C12C1F0Btext_name" font-size="12" x="309.0141817200325" y="212.89395678473716" oryx:edgePosition="startTop" stroke-width="0pt" letter-spacing="-0.01px" fill="#000000" text-anchor="start" transform="rotate(322.6960517220165 295.0141817200325 226.89395678473716)" visibility="inherit" oryx:fontSize="12"/></g><g class="children" style="overflow:hidden"/><g class="edge"/></g><g class="controls"><g class="dockers"/><g class="magnets"/></g></g><g id="_DBA9C03F-02C7-4B23-ABEE-E0D174219D24" bpmn2nodeid="_249D42EA-086C-4FEE-83E5-CD040AF248A5"><g class="stencils"><g class="me"><g pointer-events="painted" bpmn2nodeid="_249D42EA-086C-4FEE-83E5-CD040AF248A5"><path id="_DBA9C03F-02C7-4B23-ABEE-E0D174219D24_1" d="M370.4179508222667 185.3807308333996L419.9531429277333 185.0841129166004 " stroke="#000000" fill="none" stroke-width="2" stroke-linecap="round" stroke-linejoin="round" marker-start="url(#_DBA9C03F-02C7-4B23-ABEE-E0D174219D24start)" marker-end="url(#_DBA9C03F-02C7-4B23-ABEE-E0D174219D24end)"/></g><text id="_DBA9C03F-02C7-4B23-ABEE-E0D174219D24text_name" font-size="12" x="384.4179508222667" y="171.3807308333996" oryx:edgePosition="startTop" stroke-width="0pt" letter-spacing="-0.01px" fill="#000000" text-anchor="start" transform="rotate(359.65691560047645 370.4179508222667 185.3807308333996)" visibility="inherit" oryx:fontSize="12"/></g><g class="children" style="overflow:hidden"/><g class="edge"/></g><g class="controls"><g class="dockers"/><g class="magnets"/></g></g></g><text id="_14A86D65-4555-4603-9B9D-E0D306C6C132" style="stroke-width:1;fill:rgb(177,194,214);font-family:arial;font-weight:bold" font-size="12" onclick="ORYX.Plugins.CanvasTitle.openTextualAnalysis()" onmouseover="ORYX.Plugins.CanvasTitle.addToolTip('_14A86D65-4555-4603-9B9D-E0D306C6C132')" transform="translate(10, 20)">GroupsTest v.1.0</text></g></g></svg>